<svg width="64" height="64" viewBox="0 0 64 64" fill="none" xmlns="http://www.w3.org/2000/svg">
<rect width="64" height="64" rx="10" fill="url(#paint0_linear_1_42)" fill-opacity="0.8"/>
<rect x="8" y="8" width="48" height="48" rx="5" fill="#181818" fill-opacity="0.7"/>
<path d="M31.925 43.5375H23.365V20.2512H40.5V31.8625C40.5 32.4838 41.0037 32.9875 41.625 32.9875C42.2462 32.9875 42.75 32.4838 42.75 31.8625V26.6338H46.6112V27.95C46.6112 28.5712 47.115 29.075 47.7362 29.075C48.3575 29.075 48.8612 28.5712 48.8612 27.95V23.6375C48.8612 20.53 46.3325 18 43.2225 18H20.6375C17.5288 18 15 20.5288 15 23.6375V40.15C15 43.2587 17.5288 45.7887 20.6375 45.7887H31.925C32.5462 45.7887 33.05 45.285 33.05 44.6637C33.05 44.0425 32.5462 43.5375 31.925 43.5375ZM21.1163 30.7688H17.25V26.6338H21.1163V30.7688ZM17.25 33.02H21.1163V37.1562H17.25V33.02ZM46.6125 23.6375V24.3838H42.7513V20.2512H43.225C45.0925 20.2512 46.6125 21.77 46.6125 23.6375ZM20.6375 20.2512H21.1163V24.3838H17.25V23.6375C17.25 21.77 18.77 20.2512 20.6375 20.2512ZM17.25 40.15V39.4062H21.1163V43.5375H20.6375C18.77 43.5375 17.25 42.0175 17.25 40.15Z" fill="white"/>
<path d="M35.46 29.7275L32.6675 27.7538C31.855 27.18 30.8 27.1088 29.9162 27.5663C29.0325 28.0238 28.4837 28.9263 28.4837 29.9213V33.8688C28.4837 34.8638 29.0325 35.7663 29.9162 36.2238C30.3025 36.4238 30.7212 36.5225 31.1387 36.5225C31.6762 36.5225 32.21 36.3575 32.6687 36.035L35.4625 34.06C36.165 33.565 36.5825 32.7538 36.5825 31.895C36.5825 31.0363 36.1625 30.2238 35.46 29.7275ZM34.1613 32.2225L31.3687 34.1963C31.1937 34.3188 31.0312 34.2675 30.9512 34.2238C30.87 34.1825 30.7337 34.08 30.7337 33.8675V29.92C30.7337 29.7075 30.87 29.605 30.9512 29.5638C30.995 29.54 31.0612 29.515 31.1412 29.515C31.21 29.515 31.2887 29.535 31.3687 29.5925L34.1613 31.5663C34.31 31.6713 34.3313 31.8163 34.3313 31.895C34.3313 31.9738 34.31 32.1188 34.1613 32.2225Z" fill="white"/>
<path d="M51.1475 32.2563C51.1475 32.255 51.1475 32.255 51.1475 32.2563C49.6762 30.7863 47.2862 30.7888 45.8162 32.255L36.0562 42.0163C35.75 42.3238 35.55 42.7125 35.48 43.1338L34.99 46.0288C34.88 46.6875 35.095 47.3625 35.5675 47.8338C35.9587 48.225 36.4862 48.4388 37.0312 48.4388C37.145 48.4388 37.26 48.4288 37.3737 48.4113L40.2638 47.9213C40.69 47.8513 41.0775 47.6513 41.385 47.345L51.1462 37.5838C52.6137 36.1163 52.6137 33.725 51.1475 32.2563ZM39.8937 45.7025L37.25 46.15L37.6487 43.6075L44.7962 36.4588L46.95 38.6125L39.8937 45.7025ZM49.555 35.995L48.5375 37.0175L46.3875 34.8675L47.4062 33.8475C47.7025 33.5525 48.0925 33.4038 48.48 33.4038C48.87 33.4038 49.2587 33.5525 49.555 33.8475C50.1475 34.44 50.1462 35.4038 49.555 35.995Z" fill="white"/>
<defs>
<linearGradient id="paint0_linear_1_42" x1="0" y1="0" x2="64" y2="64" gradientUnits="userSpaceOnUse">
<stop stop-color="#1800B8"/>
<stop offset="1" stop-color="#A500CA"/>
</linearGradient>
</defs>
</svg>
